<svg width="855" height="204" viewBox="0 0 855 204" fill="none" xmlns="http://www.w3.org/2000/svg">
<path d="M0.23999 0.399963H29.04V202H0.23999V0.399963Z" fill="black"/>
<path d="M89.3962 0.399963H118.196V202H89.3962V101.2V0.399963Z" fill="#00D7A0"/>
<path d="M313.337 202L269.849 140.08C264.473 140.464 260.249 140.656 257.177 140.656H207.352V202H178.552V0.399963H257.177C283.289 0.399963 303.833 6.63997 318.809 19.12C333.785 31.6 341.272 48.784 341.272 70.672C341.272 86.224 337.432 99.472 329.753 110.416C322.072 121.36 311.129 129.328 296.921 134.32L344.729 202H313.337ZM256.312 116.176C274.552 116.176 288.473 112.24 298.073 104.368C307.673 96.496 312.473 85.264 312.473 70.672C312.473 56.08 307.673 44.944 298.073 37.264C288.473 29.392 274.552 25.456 256.312 25.456H207.352V116.176H256.312Z" fill="black"/>
<path d="M453.466 112.432L416.603 149.872V202H387.802V0.399963H416.603V113.008L526.042 0.399963H558.875L472.763 91.12L564.346 202H530.651L453.466 112.432Z" fill="black"/>
<path d="M594.802 0.399963H679.763C701.075 0.399963 719.986 4.62396 736.498 13.072C753.01 21.52 765.778 33.424 774.802 48.784C784.018 63.952 788.627 81.424 788.627 101.2C788.627 120.976 784.018 138.544 774.802 153.904C765.778 169.072 753.01 180.88 736.498 189.328C719.986 197.776 701.075 202 679.763 202H594.802V0.399963ZM678.034 176.944C694.354 176.944 708.659 173.776 720.947 167.44C733.427 161.104 743.027 152.272 749.747 140.944C756.467 129.424 759.827 116.176 759.827 101.2C759.827 86.224 756.467 73.072 749.747 61.744C743.027 50.224 733.427 41.296 720.947 34.96C708.659 28.624 694.354 25.456 678.034 25.456H623.602V176.944H678.034Z" fill="black"/>
<path d="M835.332 203.728C829.956 203.728 825.348 201.904 821.508 198.256C817.668 194.416 815.748 189.616 815.748 183.856C815.748 178.288 817.668 173.68 821.508 170.032C825.348 166.192 829.956 164.272 835.332 164.272C840.708 164.272 845.22 166.096 848.868 169.744C852.516 173.392 854.34 178.096 854.34 183.856C854.34 189.616 852.42 194.416 848.58 198.256C844.932 201.904 840.516 203.728 835.332 203.728Z" fill="#00D7A0"/>
</svg>
