<svg width="463" height="52" viewBox="0 0 463 52" fill="none" xmlns="http://www.w3.org/2000/svg">
<path d="M0.56 0.599997H7.76V51H0.56V0.599997ZM108.858 51L97.9856 35.52C96.6416 35.616 95.5856 35.664 94.8176 35.664H82.3616V51H75.1616V0.599997H94.8176C101.346 0.599997 106.482 2.16 110.226 5.28C113.97 8.4 115.842 12.696 115.842 18.168C115.842 22.056 114.882 25.368 112.962 28.104C111.042 30.84 108.306 32.832 104.754 34.08L116.706 51H108.858ZM94.6016 29.544C99.1616 29.544 102.642 28.56 105.042 26.592C107.442 24.624 108.642 21.816 108.642 18.168C108.642 14.52 107.442 11.736 105.042 9.816C102.642 7.848 99.1616 6.864 94.6016 6.864H82.3616V29.544H94.6016ZM159.586 38.4H132.802L127.258 51H119.842L142.666 0.599997H149.794L172.69 51H165.13L159.586 38.4ZM157.066 32.64L146.194 7.944L135.322 32.64H157.066ZM187.685 6.864H170.405V0.599997H212.093V6.864H194.813V51H187.685V6.864ZM219.935 0.599997H227.135V51H219.935V0.599997ZM264.976 51.576C259.888 51.576 255.304 50.472 251.224 48.264C247.144 46.008 243.928 42.912 241.576 38.976C239.272 35.04 238.12 30.648 238.12 25.8C238.12 20.952 239.272 16.56 241.576 12.624C243.928 8.688 247.144 5.616 251.224 3.408C255.304 1.152 259.888 0.0239997 264.976 0.0239997C270.016 0.0239997 274.576 1.152 278.656 3.408C282.736 5.616 285.928 8.688 288.232 12.624C290.536 16.512 291.688 20.904 291.688 25.8C291.688 30.696 290.536 35.112 288.232 39.048C285.928 42.936 282.736 46.008 278.656 48.264C274.576 50.472 270.016 51.576 264.976 51.576ZM264.976 45.168C268.672 45.168 271.984 44.328 274.912 42.648C277.888 40.968 280.216 38.664 281.896 35.736C283.624 32.76 284.488 29.448 284.488 25.8C284.488 22.152 283.624 18.864 281.896 15.936C280.216 12.96 277.888 10.632 274.912 8.952C271.984 7.272 268.672 6.432 264.976 6.432C261.28 6.432 257.92 7.272 254.896 8.952C251.92 10.632 249.568 12.96 247.84 15.936C246.16 18.864 245.32 22.152 245.32 25.8C245.32 29.448 246.16 32.76 247.84 35.736C249.568 38.664 251.92 40.968 254.896 42.648C257.92 44.328 261.28 45.168 264.976 45.168ZM346.037 0.599997V51H340.133L309.893 13.416V51H302.693V0.599997H308.597L338.837 38.184V0.599997H346.037ZM393.234 38.4H366.451L360.907 51H353.49L376.315 0.599997H383.443L406.339 51H398.779L393.234 38.4ZM390.715 32.64L379.843 7.944L368.971 32.64H390.715ZM413.857 0.599997H421.057V44.736H448.345V51H413.857V0.599997Z" fill="black"/>
<path d="M56.5451 51L45.6731 35.52C44.3291 35.616 43.2731 35.664 42.5051 35.664H30.0491V51H22.8491V0.599997H42.5051C49.0331 0.599997 54.1691 2.16 57.9131 5.28C61.6571 8.4 63.5291 12.696 63.5291 18.168C63.5291 22.056 62.5691 25.368 60.6491 28.104C58.7291 30.84 55.9931 32.832 52.4411 34.08L64.3931 51H56.5451ZM42.2891 29.544C46.8491 29.544 50.3291 28.56 52.7291 26.592C55.1291 24.624 56.3291 21.816 56.3291 18.168C56.3291 14.52 55.1291 11.736 52.7291 9.816C50.3291 7.848 46.8491 6.864 42.2891 6.864H30.0491V29.544H42.2891ZM457.255 51.432C455.911 51.432 454.759 50.976 453.799 50.064C452.839 49.104 452.359 47.904 452.359 46.464C452.359 45.072 452.839 43.92 453.799 43.008C454.759 42.048 455.911 41.568 457.255 41.568C458.599 41.568 459.727 42.024 460.639 42.936C461.551 43.848 462.007 45.024 462.007 46.464C462.007 47.904 461.527 49.104 460.567 50.064C459.655 50.976 458.551 51.432 457.255 51.432Z" fill="#00D7A0"/>
</svg>
